<svg xmlns="http://www.w3.org/2000/svg" viewBox="0 0 200 200">
  <!-- Tessi logo: dark navy background with white "tessi" wordmark -->
  <rect width="200" height="200" rx="16" fill="#1B2040"/>
  <g fill="#FFFFFF">
    <!-- t -->
    <rect x="22" y="70" width="4" height="55" rx="2"/>
    <rect x="15" y="82" width="18" height="4" rx="2"/>
    <!-- e -->
    <path d="M42,107 Q42,95 52,89 Q58,86 64,89 Q70,93 70,102 L70,105 L48,105 Q49,114 58,114 Q63,114 67,110 L70,114 Q65,120 56,120 Q42,120 42,107 Z M48,100 L64,100 Q63,93 56,93 Q49,93 48,100 Z"/>
    <!-- s -->
    <path d="M76,113 Q80,118 87,118 Q93,118 93,113 Q93,109 87,107 L82,106 Q74,103 74,96 Q74,88 84,88 Q91,88 95,93 L91,97 Q88,93 84,93 Q79,93 79,97 Q79,100 85,102 L90,103 Q98,106 98,113 Q98,120 87,120 Q79,120 74,116 Z"/>
    <!-- s -->
    <path d="M104,113 Q108,118 115,118 Q121,118 121,113 Q121,109 115,107 L110,106 Q102,103 102,96 Q102,88 112,88 Q119,88 123,93 L119,97 Q116,93 112,93 Q107,93 107,97 Q107,100 113,102 L118,103 Q126,106 126,113 Q126,120 115,120 Q107,120 102,116 Z"/>
    <!-- i -->
    <rect x="133" y="90" width="4" height="28" rx="2"/>
    <circle cx="135" cy="82" r="3"/>
  </g>
</svg>
