<svg xmlns="http://www.w3.org/2000/svg" viewBox="0 0 160 80">
  <g fill="#6366f1">
    <path d="M10,15 L10,25 L0,25 L0,33 L10,33 L10,60 Q10,70 20,70 L28,70 L28,62 L22,62 Q18,62 18,58 L18,33 L28,33 L28,25 L18,25 L18,10 Z" />
    <path d="M55,47 Q55,45 50,42 Q45,39 40,42 Q35,45 35,50 Q35,55 37,58 Q40,62 45,64 Q50,66 55,64 L55,70 Q50,73 42,71 Q34,69 30,62 Q26,56 26,47 Q26,38 30,32 Q34,26 42,24 Q50,22 55,26 Q60,30 60,38 L60,42 L35,42 Q35,47 55,47 Z" />
    <path d="M90,30 Q85,24 78,24 Q72,24 68,28 Q64,32 66,37 Q68,42 74,44 L82,47 Q88,49 88,54 Q88,59 84,62 Q80,65 75,65 Q68,65 64,60 L60,66 Q66,72 76,72 Q84,72 89,67 Q94,62 94,55 Q94,48 88,44 L80,41 Q74,38 74,34 Q74,30 78,30 Q82,30 85,34 Z" />
    <path d="M125,30 Q120,24 113,24 Q107,24 103,28 Q99,32 101,37 Q103,42 109,44 L117,47 Q123,49 123,54 Q123,59 119,62 Q115,65 110,65 Q103,65 99,60 L95,66 Q101,72 111,72 Q119,72 124,67 Q129,62 129,55 Q129,48 123,44 L115,41 Q109,38 109,34 Q109,30 113,30 Q117,30 120,34 Z" />
    <path d="M140,25 L148,25 L148,70 L140,70 Z M140,10 L148,10 L148,20 L140,20 Z" />
  </g>
</svg>
